# AST/ASF file generated using VICON BodyLanguage
# -----------------------------------------------
:version 1.10
:name VICON
:units
  mass 1.0
  length 0.45
  angle deg
:documentation
   .ast/.asf automatically generated from VICON data using
   VICON BodyBuilder and BodyLanguage model FoxedUp or BRILLIANT.MOD
:root
   order TX TY TZ RX RY RZ
   axis XYZ
   position 0 0 0  
   orientation 0 0 0 
:bonedata
  begin
     id 1 
     name lhipjoint
     direction 0.566809 -0.746272 0.349008 
     length 2.40479 
     axis 0 0 0  XYZ
  end
  begin
     id 2 
     name lfemur
     direction 0.34202 -0.939693 0  
     length 7.1578  
     axis 0 0 20  XYZ
    dof rx ry rz
    limits (-160.0 20.0)
           (-70.0 70.0)
           (-60.0 70.0)
  end
  begin
     id 3 
     name ltibia
     direction 0.34202 -0.939693 0   
     length 7.49137   
     axis 0 0 20   XYZ
    dof rx
    limits (-10.0 170.0)
  end
  begin
     id 4 
     name lfoot
     direction 0.0665746 -0.182912 0.980873   
     length 2.36784   
     axis -90 7.62852e-016 20   XYZ
    dof rx rz
    limits (-45.0 90.0)
           (-70.0 20.0)
  end
  begin
     id 5 
     name ltoes
     direction 1.53601e-011 -4.22058e-011 1   
     length 1.18966   
     axis -90 7.62852e-016 20   XYZ
    dof rx
    limits (-90.0 20.0)
  end
  begin
     id 6 
     name rhipjoint
     direction -0.550236 -0.756381 0.353735   
     length 2.37265  
     axis 0 0 0  XYZ 
  end
  begin
     id 7 
     name rfemur
     direction -0.34202 -0.939693 0   
     length 7.43386   
     axis 0 0 -20   XYZ
    dof rx ry rz
    limits (-160.0 20.0)
           (-70.0 70.0)
           (-70.0 60.0)
  end
  begin
     id 8 
     name rtibia
     direction -0.34202 -0.939693 0   
     length 7.50908   
     axis 0 0 -20   XYZ
    dof rx
    limits (-10.0 170.0)
 end
 begin
     id 9 
     name rfoot
     direction -0.0683029 -0.187661 0.979856   
     length 2.41173  
     axis -90 -7.62852e-016 -20   XYZ
    dof rx rz
    limits (-45.0 90.0)
           (-20.0 70.0)
  end
  begin
     id 10 
     name rtoes
     direction -1.53528e-011 -4.21968e-011 1   
     length 1.21082   
     axis -90 -7.62852e-016 -20   XYZ
    dof rx
    limits (-90.0 20.0)
  end
  begin
     id 11 
     name lowerback
     direction 0.013823 0.995423 -0.0945635   
     length 2.04495   
     axis 0 0 0   XYZ
    dof rx ry rz
    limits (-20.0 45.0)
           (-30.0 30.0)
           (-30.0 30.0)
  end
  begin
     id 12 
     name upperback
     direction 0.0276657 0.9994 -0.020853   
     length 2.05008   
     axis 0 0 0   XYZ
    dof rx ry rz
    limits (-20.0 45.0)
           (-30.0 30.0)
           (-30.0 30.0)
  end
  begin
     id 13 
     name thorax
     direction 0.019782 0.999531 0.0233827   
     length 2.06488   
     axis 0 0 0   XYZ
    dof rx ry rz
    limits (-20.0 45.0)
           (-30.0 30.0)
           (-30.0 30.0)
  end
  begin
     id 14 
     name lowerneck
     direction -0.0308541 0.994709 0.0979874   
     length 1.75553   
     axis 0 0 0   XYZ
    dof rx ry rz
    limits (-20.0 45.0)
           (-30.0 30.0)
           (-30.0 30.0)
  end
  begin
     id 15 
     name upperneck
     direction 0.0588398 0.995804 -0.0700903   
     length 1.76878   
     axis 0 0 0   XYZ
    dof rx ry rz
    limits (-20.0 45.0)
           (-30.0 30.0)
           (-30.0 30.0)
  end
  begin
     id 16
     name head
     direction 0.0209966 0.999159 -0.0352225  
     length 1.77193  
     axis 0 0 0   XYZ
    dof rx ry rz
    limits (-20.0 45.0)
           (-30.0 30.0)
           (-30.0 30.0)
  end
  begin
     id 17 
     name lclavicle
     direction 0.938182 0.335073 -0.0868338  
     length 3.58396  
     axis 0 0 0   XYZ
    dof ry rz
    limits (-20.0 10.0)
           (0.0 20.0)
  end
  begin
     id 18 
     name lhumerus
     direction 1 -4.48971e-011 -1.26313e-017   
     length 4.983   
     axis 180 -30 -90   XYZ
    dof rx ry rz
    limits (-60.0 90.0)
           (-90.0 90.0)
           (-90.0 90.0)
  end
  begin
     id 19
     name lradius
     direction 1 -4.48948e-011 -5.89033e-027   
     length 3.48356   
     axis 180 -30 -90   XYZ
    dof rx
    limits (-10.0 170.0)
  end
  begin
     id 20
     name lwrist
     direction 1 -4.48977e-011 -1.48983e-026   
     length 1.74178   
     axis 9.0955e-015 90 90   XYZ
    dof ry
    limits (-180.0 0.0)
 end
  begin
     id 21 
     name lhand
     direction 1 -4.49046e-011 -2.98066e-026   
     length 0.715259   
     axis 1.90115e-014 90 90   XYZ
    dof rx rz
    limits (-90.0 90.0)
           (-45.0 45.0)
  end
  begin
     id 22 
     name lfingers
     direction 1 -4.48907e-011 -5.95731e-026   
     length 0.576661   
     axis 3.80223e-014 90 90   XYZ
    dof rx
    limits (0.0 90.0)
  end
  begin
     id 23
     name lthumb
     direction 0.707107 -6.34963e-011 0.707107   
     length 0.827973   
     axis -90 45 -3.84942e-014   XYZ
    dof rx rz
    limits (-45.0 45.0)
           (-45.0 45.0)
  end
  begin
     id 24 
     name rclavicle
     direction -0.909637 0.398485 -0.11735   
     length 3.44819  
     axis 0 0 0   XYZ 
    dof ry rz
    limits (-10.0 20.0)
           (-20.0 0.0)
  end
  begin
     id 25 
     name rhumerus
     direction -1 -4.48978e-011 -1.09333e-027  
     length 5.2419   
     axis 180 30 90   XYZ
    dof rx ry rz
    limits (-90.0 60.0)
           (-90.0 90.0)
           (-90.0 90.0)
  end
  begin
     id 26 
     name rradius
     direction -1 -4.48953e-011 -7.61841e-027   
     length 3.44417   
     axis 180 30 90   XYZ
    dof rx
    limits (-10.0 170.0)
  end
  begin
     id 27 
     name rwrist
     direction -1 -4.48977e-011 -1.48983e-026   
     length 1.72209   
     axis 9.0955e-015 -90 -90   XYZ
    dof ry
    limits (-180.0 0.0)
  end
  begin
     id 28
     name rhand
     direction -1 -4.49027e-011 -2.98038e-026   
     length 0.622529   
     axis 1.90115e-014 -90 -90   XYZ
    dof rx rz
    limits (-90.0 90.0)
           (-45.0 45.0)
  end
  begin
     id 29
     name rfingers
     direction -1 -4.48838e-011 -5.95531e-026   
     length 0.501899   
     axis 3.80223e-014 -90 -90   XYZ
    dof rx
    limits (0.0 90.0)
  end
  begin
     id 30
     name rthumb
     direction -0.707107 -6.34937e-011 0.707107   
     length 0.720629   
     axis -90 -45 3.84942e-014   XYZ
    dof rx rz
    limits (-45.0 45.0)
           (-45.0 45.0)
  end
:hierarchy
  begin
    root lhipjoint rhipjoint lowerback
    lhipjoint lfemur
    lfemur ltibia
    ltibia lfoot
    lfoot ltoes
    rhipjoint rfemur
    rfemur rtibia
    rtibia rfoot
    rfoot rtoes
    lowerback upperback
    upperback thorax
    thorax lowerneck lclavicle rclavicle
    lowerneck upperneck
    upperneck head
    lclavicle lhumerus
    lhumerus lradius
    lradius lwrist
    lwrist lhand lthumb
    lhand lfingers
    rclavicle rhumerus
    rhumerus rradius
    rradius rwrist
    rwrist rhand rthumb
    rhand rfingers
  end

#!OML:ASF F:\VICON\USERDATA\Patient Classification 1\PLAYGROUND\JustinFriday\JustinFriday.ASF
:FULLY-SPECIFIED
:DEGREES
564
root -21.8509 26.8554 -10.0678 289.876 81.3777 -86.2238
lowerback 31.4176 -0.417542 -0.116481
upperback 7.9507 0.539764 3.2063
thorax -8.22778 0.558541 3.45298
lowerneck -8.88568 -7.42006 -9.86183
upperneck -23.2446 -5.97618 18.0455
head -4.3913 -2.67957 7.48868
rclavicle -7.55382e-015 1.27222e-014
rhumerus 43.7632 9.29262 -69.0417
rradius 53.1573
rwrist 14.6447
rhand -31.4876 3.73744
rfingers 7.12502
rthumb -4.754 -26.1892
lclavicle -7.55382e-015 1.27222e-014
lhumerus 23.2082 -28.1368 63.6187
lradius 57.6506
lwrist -26.2688
lhand -34.4397 -19.1756
lfingers 7.12502
lthumb -7.60395 10.6677
rfemur -53.5818 0.429432 27.351
rtibia 84.8197
rfoot -25.6424 -8.57338
rtoes 16.6888
lfemur -35.8497 5.21795 -16.4588
ltibia 35.0969
lfoot -15.5904 -3.19897
ltoes 5.43877
565
root -21.8393 26.9176 -10.0906 288.685 81.1216 -87.0372
lowerback 31.9145 -0.685604 0.305333
upperback 8.09547 0.355255 3.11476
thorax -8.28242 0.476025 3.17605
lowerneck -8.97228 -6.95773 -6.23508
upperneck -23.4975 -5.89669 15.0326
head -4.80227 -2.77795 5.88638
rclavicle 2.18663e-014 -5.48646e-014
rhumerus 44.0001 9.01738 -69.6841
rradius 52.7331
rwrist 15.8258
rhand -29.9424 6.23173
rfingers 7.12502
rthumb -3.26182 -23.7231
lclavicle 2.18663e-014 -5.48646e-014
lhumerus 23.0366 -27.7242 62.9597
lradius 58.9541
lwrist -27.6486
lhand -37.3782 -22.0416
lfingers 7.12502
lthumb -10.4395 7.67926
rfemur -54.0807 0.364874 27.6447
rtibia 85.9113
rfoot -26.157 -9.04437
rtoes 14.0906
lfemur -34.6845 4.76378 -16.08
ltibia 33.7792
lfoot -14.7231 -2.96174
ltoes 5.81103
566
root -21.8455 26.9747 -10.105 285.064 81.2257 -90.84
lowerback 31.9918 -1.01058 0.64374
upperback 8.11074 0.0484364 2.99041
thorax -8.28555 0.331576 2.9536
lowerneck -7.99701 -7.29022 -3.80983
upperneck -25.5687 -6.50592 13.4399
head -5.7582 -3.23168 5.08373
rclavicle -6.75868e-015 -4.81059e-014
rhumerus 44.0919 9.87583 -68.5915
rradius 53.4258
rwrist 13.1112
rhand -32.8116 2.78959
rfingers 7.12502
rthumb -6.03236 -27.1045
lclavicle -6.75868e-015 -4.81059e-014
lhumerus 23.1612 -27.3813 61.9667
lradius 60.648
lwrist -27.9416
lhand -38.5654 -25.7737
lfingers 7.12502
lthumb -11.5846 3.88614
rfemur -55.2853 -0.0605396 27.7862
rtibia 87.0989
rfoot -26.8086 -8.6508
rtoes 13.1746
lfemur -34.3928 4.36293 -16.0459
ltibia 32.5839
lfoot -13.436 -3.94436
ltoes 12.7953
567
root -21.8375 27.0331 -10.0883 289.847 81.6268 -86.0113
lowerback 32.5631 -0.388807 -0.26655
upperback 7.84581 0.567869 3.20865
thorax -8.15666 0.56356 3.27723
lowerneck -9.58711 -7.09297 -4.93163
upperneck -23.8879 -6.22978 13.8791
head -4.91665 -2.95556 5.28553
rclavicle -1.23246e-014 -1.90833e-014
rhumerus 44.0966 8.80884 -67.9606
rradius 53.3266
rwrist 14.0416
rhand -31.7242 4.66895
rfingers 7.12502
rthumb -4.98238 -25.2525
lclavicle -1.23246e-014 -1.90833e-014
lhumerus 23.7102 -27.3211 61.651
lradius 62.3272
lwrist -28.6395
lhand -39.9112 -28.4005
lfingers 7.12502
lthumb -12.8821 1.18193
rfemur -56.335 0.812464 27.2733
rtibia 88.286
rfoot -27.0812 -9.67822
rtoes 11.2561
lfemur -33.9427 7.57781 -17.3118
ltibia 31.389
lfoot -11.613 -7.5498
ltoes 19.3368
568
root -21.8259 27.0868 -10.0682 294.99 81.3827 -80.4704
lowerback 33.1502 -0.335363 -1.994
upperback 7.86926 0.0752086 3.23829
thorax -8.3285 0.347312 4.41691
lowerneck -9.50242 -6.26071 -4.94213
upperneck -23.4948 -5.04875 14.2948
head -4.89601 -2.40005 5.42412
rclavicle 7.95139e-015 2.38542e-014
rhumerus 44.6189 10.544 -68.4861
rradius 53.3149
rwrist 13.3713
rhand -32.1992 5.08569
rfingers 7.12502
rthumb -5.4411 -24.8245
lclavicle 7.95139e-015 2.38542e-014
lhumerus 21.9716 -25.1558 60.6516
lradius 64.4733
lwrist -30.0835
lhand -40.8908 -30.2782
lfingers 7.12502
lthumb -13.8264 -0.757712
rfemur -56.961 2.02191 27.2987
rtibia 89.3451
rfoot -27.4264 -10.4064
rtoes 12.1447
lfemur -32.8303 9.25918 -17.4207
ltibia 30.2528
lfoot -10.4336 -8.83948
ltoes 22.5301
569
root -21.8206 27.1326 -10.1178 288.022 81.3799 -88.0028
lowerback 32.6058 -0.890465 -0.592171
upperback 7.84634 -0.0905368 3.84224
thorax -8.14402 0.254652 4.36082
lowerneck -8.53058 -6.8749 -6.5982
upperneck -24.8631 -5.65224 14.9143
head -5.32326 -2.63637 5.99188
rclavicle -1.59028e-014 4.17448e-014
rhumerus 44.6983 10.3316 -66.5571
rradius 53.6609
rwrist 12.2481
rhand -32.8863 3.1505
rfingers 7.12502
rthumb -6.10447 -26.7416
lclavicle -1.59028e-014 4.17448e-014
lhumerus 21.9174 -24.7645 61.529
lradius 66.3926
lwrist -30.1437
lhand -42.7671 -33.5708
lfingers 7.12502
lthumb -15.6341 -4.18258
rfemur -58.6956 0.978485 27.5737
rtibia 90.426
rfoot -28.0074 -9.62584
rtoes 14.0299
lfemur -32.9344 7.95128 -17.2054
ltibia 29.0652
lfoot -9.63623 -8.33631
ltoes 22.4906
570
root -21.8121 27.1927 -10.1308 289.728 81.2256 -85.9412
lowerback 33.0792 -0.841342 -0.297452
upperback 8.02183 0.087947 3.75824
thorax -8.14587 0.34377 4.04827
lowerneck -9.46034 -6.73146 -6.03287
upperneck -22.492 -5.73946 14.9397
head -4.44167 -2.70903 5.76777
rclavicle -3.57812e-015 5.52621e-014
rhumerus 45.7368 10.6311 -70.9493
rradius 51.3119
rwrist 16.0179
rhand -33.0135 3.94376
rfingers 7.12502
rthumb -6.2272 -25.9447
lclavicle -3.57812e-015 5.52621e-014
lhumerus 21.9136 -24.1904 60.7555
lradius 68.6438
lwrist -30.0353
lhand -43.225 -36.3536
lfingers 7.12502
lthumb -16.0751 -7.00038
rfemur -59.3296 1.4044 27.6343
rtibia 91.3728
rfoot -28.2067 -9.87302
rtoes 11.9761
lfemur -31.8867 7.55296 -17.0152
ltibia 27.9265
lfoot -9.57196 -7.01119
ltoes 19.9769
